<mxfile host="app.diagrams.net" modified="2020-07-15T07:40:46.567Z" agent="5.0 (Windows NT 10.0; Win64; x64) AppleWebKit/537.36 (KHTML, like Gecko) Chrome/83.0.4103.116 Safari/537.36" etag="N0A9tvdo7SicvXfZEzno" version="13.3.2" type="github">
  <diagram id="7hDjB47ngaRLFAoro3Ch" name="페이지-1">
    <mxGraphModel dx="1423" dy="762" grid="1" gridSize="10" guides="1" tooltips="1" connect="1" arrows="1" fold="1" page="1" pageScale="1" pageWidth="1169" pageHeight="827" math="0" shadow="0">
      <root>
        <mxCell id="0" />
        <mxCell id="1" parent="0" />
        <mxCell id="et4fNbXaf8h7sO6CiQnJ-1" value="App" style="rounded=0;whiteSpace=wrap;html=1;strokeWidth=2;strokeColor=#8F8F8F;" parent="1" vertex="1">
          <mxGeometry x="525" y="35" width="120" height="50" as="geometry" />
        </mxCell>
        <mxCell id="opA1TEvDP1Y44mFqO1OU-2" value="router-view" style="rounded=0;whiteSpace=wrap;html=1;strokeWidth=2;strokeColor=#8F8F8F;" parent="1" vertex="1">
          <mxGeometry x="840" y="172.5" width="180" height="50" as="geometry" />
        </mxCell>
        <mxCell id="opA1TEvDP1Y44mFqO1OU-3" value="StausHeaderPage" style="rounded=0;whiteSpace=wrap;html=1;strokeWidth=2;strokeColor=#8F8F8F;" parent="1" vertex="1">
          <mxGeometry x="100" y="172.5" width="120" height="50" as="geometry" />
        </mxCell>
        <mxCell id="opA1TEvDP1Y44mFqO1OU-4" value="SideBarPage" style="rounded=0;whiteSpace=wrap;html=1;strokeWidth=2;strokeColor=#8F8F8F;" parent="1" vertex="1">
          <mxGeometry x="230" y="172.5" width="120" height="50" as="geometry" />
        </mxCell>
        <mxCell id="opA1TEvDP1Y44mFqO1OU-12" value="" style="strokeWidth=1;html=1;shape=mxgraph.flowchart.annotation_1;align=left;pointerEvents=1;verticalAlign=middle;horizontal=1;rotation=90;spacing=1;fontSize=7;perimeterSpacing=0;fillColor=#f5f5f5;strokeColor=#666666;fontColor=#333333;" parent="1" vertex="1">
          <mxGeometry x="232.5" y="85" width="5" height="160" as="geometry" />
        </mxCell>
        <mxCell id="opA1TEvDP1Y44mFqO1OU-13" value="" style="strokeWidth=1;html=1;shape=mxgraph.flowchart.annotation_1;align=left;pointerEvents=1;verticalAlign=middle;horizontal=1;rotation=90;spacing=1;fontSize=7;perimeterSpacing=0;fillColor=#f5f5f5;strokeColor=#666666;fontColor=#333333;" parent="1" vertex="1">
          <mxGeometry x="562.38" y="-200.43" width="36.73" height="676.64" as="geometry" />
        </mxCell>
        <mxCell id="opA1TEvDP1Y44mFqO1OU-15" value="RegistrationPage" style="rounded=0;whiteSpace=wrap;html=1;strokeWidth=2;strokeColor=#8F8F8F;" parent="1" vertex="1">
          <mxGeometry x="130" y="300" width="151.82608695652172" height="50" as="geometry" />
        </mxCell>
        <mxCell id="opA1TEvDP1Y44mFqO1OU-16" value="SettingPage" style="rounded=0;whiteSpace=wrap;html=1;strokeWidth=2;strokeColor=#8F8F8F;" parent="1" vertex="1">
          <mxGeometry x="948.1739130434781" y="300" width="151.82608695652172" height="50" as="geometry" />
        </mxCell>
        <mxCell id="opA1TEvDP1Y44mFqO1OU-17" value="MainPage" style="rounded=0;whiteSpace=wrap;html=1;strokeWidth=2;strokeColor=#8F8F8F;" parent="1" vertex="1">
          <mxGeometry x="294" y="300" width="151.82608695652172" height="50" as="geometry" />
        </mxCell>
        <mxCell id="opA1TEvDP1Y44mFqO1OU-18" value="MyPage" style="rounded=0;whiteSpace=wrap;html=1;strokeWidth=2;strokeColor=#8F8F8F;" parent="1" vertex="1">
          <mxGeometry x="785" y="300" width="151.82608695652172" height="50" as="geometry" />
        </mxCell>
        <mxCell id="opA1TEvDP1Y44mFqO1OU-19" value="StatisticsPage" style="rounded=0;whiteSpace=wrap;html=1;strokeWidth=2;strokeColor=#8F8F8F;" parent="1" vertex="1">
          <mxGeometry x="621" y="300" width="151.82608695652172" height="50" as="geometry" />
        </mxCell>
        <mxCell id="opA1TEvDP1Y44mFqO1OU-20" value="DailyPage" style="rounded=0;whiteSpace=wrap;html=1;strokeWidth=2;strokeColor=#8F8F8F;" parent="1" vertex="1">
          <mxGeometry x="457" y="300" width="151.83" height="50" as="geometry" />
        </mxCell>
        <mxCell id="opA1TEvDP1Y44mFqO1OU-41" value="" style="endArrow=none;html=1;rounded=0;fontSize=7;entryX=0.5;entryY=1;entryDx=0;entryDy=0;strokeColor=#5E5E5E;" parent="1" target="opA1TEvDP1Y44mFqO1OU-2" edge="1">
          <mxGeometry relative="1" as="geometry">
            <mxPoint x="930" y="380" as="sourcePoint" />
            <mxPoint x="650" y="390" as="targetPoint" />
          </mxGeometry>
        </mxCell>
        <mxCell id="opA1TEvDP1Y44mFqO1OU-42" value="" style="group" parent="1" vertex="1" connectable="0">
          <mxGeometry x="205" y="280" width="815.4100000000002" height="20" as="geometry" />
        </mxCell>
        <mxCell id="opA1TEvDP1Y44mFqO1OU-23" value="" style="endArrow=none;html=1;rounded=0;fontSize=7;strokeColor=#5E5E5E;" parent="opA1TEvDP1Y44mFqO1OU-42" edge="1">
          <mxGeometry relative="1" as="geometry">
            <mxPoint x="0.410000000000025" y="20" as="sourcePoint" />
            <mxPoint as="targetPoint" />
          </mxGeometry>
        </mxCell>
        <mxCell id="opA1TEvDP1Y44mFqO1OU-24" value="" style="endArrow=none;html=1;rounded=0;fontSize=7;strokeColor=#5E5E5E;" parent="opA1TEvDP1Y44mFqO1OU-42" edge="1">
          <mxGeometry relative="1" as="geometry">
            <mxPoint x="164.82000000000005" y="20" as="sourcePoint" />
            <mxPoint x="164.40999999999997" as="targetPoint" />
          </mxGeometry>
        </mxCell>
        <mxCell id="opA1TEvDP1Y44mFqO1OU-34" value="" style="endArrow=none;html=1;rounded=0;fontSize=7;strokeColor=#5E5E5E;" parent="opA1TEvDP1Y44mFqO1OU-42" edge="1">
          <mxGeometry relative="1" as="geometry">
            <mxPoint x="815.4100000000002" y="20" as="sourcePoint" />
            <mxPoint x="814.9999999999999" as="targetPoint" />
          </mxGeometry>
        </mxCell>
        <mxCell id="opA1TEvDP1Y44mFqO1OU-35" value="" style="endArrow=none;html=1;rounded=0;fontSize=7;strokeColor=#5E5E5E;" parent="opA1TEvDP1Y44mFqO1OU-42" edge="1">
          <mxGeometry relative="1" as="geometry">
            <mxPoint x="655.8200000000002" y="20" as="sourcePoint" />
            <mxPoint x="655.4099999999999" as="targetPoint" />
          </mxGeometry>
        </mxCell>
        <mxCell id="opA1TEvDP1Y44mFqO1OU-36" value="" style="endArrow=none;html=1;rounded=0;fontSize=7;strokeColor=#616161;" parent="opA1TEvDP1Y44mFqO1OU-42" edge="1">
          <mxGeometry relative="1" as="geometry">
            <mxPoint x="491.82000000000016" y="20" as="sourcePoint" />
            <mxPoint x="491.40999999999985" as="targetPoint" />
          </mxGeometry>
        </mxCell>
        <mxCell id="opA1TEvDP1Y44mFqO1OU-37" value="" style="endArrow=none;html=1;rounded=0;fontSize=7;strokeColor=#5E5E5E;" parent="opA1TEvDP1Y44mFqO1OU-42" source="opA1TEvDP1Y44mFqO1OU-20" edge="1">
          <mxGeometry relative="1" as="geometry">
            <mxPoint x="327.82000000000016" y="20" as="sourcePoint" />
            <mxPoint x="327.40999999999985" as="targetPoint" />
          </mxGeometry>
        </mxCell>
        <mxCell id="opA1TEvDP1Y44mFqO1OU-38" value="" style="endArrow=none;html=1;rounded=0;fontSize=7;strokeColor=#5E5E5E;" parent="opA1TEvDP1Y44mFqO1OU-42" edge="1">
          <mxGeometry relative="1" as="geometry">
            <mxPoint as="sourcePoint" />
            <mxPoint x="815" as="targetPoint" />
          </mxGeometry>
        </mxCell>
        <mxCell id="opA1TEvDP1Y44mFqO1OU-51" value="" style="group" parent="1" vertex="1" connectable="0">
          <mxGeometry x="90" y="740" width="267.12" height="100" as="geometry" />
        </mxCell>
        <mxCell id="opA1TEvDP1Y44mFqO1OU-54" value="" style="group" parent="opA1TEvDP1Y44mFqO1OU-51" vertex="1" connectable="0">
          <mxGeometry width="267.12" height="100" as="geometry" />
        </mxCell>
        <mxCell id="opA1TEvDP1Y44mFqO1OU-83" value="" style="group" parent="opA1TEvDP1Y44mFqO1OU-54" vertex="1" connectable="0">
          <mxGeometry width="267.12" height="100" as="geometry" />
        </mxCell>
        <mxCell id="opA1TEvDP1Y44mFqO1OU-111" value="" style="group" parent="opA1TEvDP1Y44mFqO1OU-83" vertex="1" connectable="0">
          <mxGeometry x="30" y="-70" width="160" height="50" as="geometry" />
        </mxCell>
        <mxCell id="opA1TEvDP1Y44mFqO1OU-43" value="SignupForm" style="rounded=0;whiteSpace=wrap;html=1;strokeWidth=2;strokeColor=#8F8F8F;gradientColor=none;" parent="opA1TEvDP1Y44mFqO1OU-111" vertex="1">
          <mxGeometry x="85.12940843409422" width="74.87059156590577" height="50" as="geometry" />
        </mxCell>
        <mxCell id="opA1TEvDP1Y44mFqO1OU-44" value="LoginForm" style="rounded=0;whiteSpace=wrap;html=1;strokeWidth=2;strokeColor=#8F8F8F;gradientColor=none;" parent="opA1TEvDP1Y44mFqO1OU-111" vertex="1">
          <mxGeometry width="74.87059156590577" height="50" as="geometry" />
        </mxCell>
        <mxCell id="opA1TEvDP1Y44mFqO1OU-110" value="" style="group" parent="opA1TEvDP1Y44mFqO1OU-83" vertex="1" connectable="0">
          <mxGeometry x="22.879408434094216" y="30" width="244.2405915659058" height="70" as="geometry" />
        </mxCell>
        <mxCell id="opA1TEvDP1Y44mFqO1OU-62" value="DailyList" style="rounded=0;whiteSpace=wrap;html=1;strokeWidth=2;strokeColor=#8F8F8F;" parent="opA1TEvDP1Y44mFqO1OU-110" vertex="1">
          <mxGeometry x="84.87059156590578" y="20" width="74.87059156590577" height="50" as="geometry" />
        </mxCell>
        <mxCell id="opA1TEvDP1Y44mFqO1OU-63" value="DailyBalance" style="rounded=0;whiteSpace=wrap;html=1;strokeWidth=2;strokeColor=#8F8F8F;" parent="opA1TEvDP1Y44mFqO1OU-110" vertex="1">
          <mxGeometry y="20" width="74.87059156590577" height="50" as="geometry" />
        </mxCell>
        <mxCell id="opA1TEvDP1Y44mFqO1OU-61" value="DailyListAdd" style="rounded=0;whiteSpace=wrap;html=1;strokeWidth=2;strokeColor=#8F8F8F;" parent="opA1TEvDP1Y44mFqO1OU-110" vertex="1">
          <mxGeometry x="169.37" y="20" width="74.87059156590577" height="50" as="geometry" />
        </mxCell>
        <mxCell id="opA1TEvDP1Y44mFqO1OU-100" value="" style="endArrow=none;html=1;rounded=0;fontSize=7;dashed=1;strokeColor=#454545;opacity=40;" parent="opA1TEvDP1Y44mFqO1OU-110" edge="1">
          <mxGeometry relative="1" as="geometry">
            <mxPoint x="40.201717379913475" y="20" as="sourcePoint" />
            <mxPoint x="40.00059156590578" as="targetPoint" />
          </mxGeometry>
        </mxCell>
        <mxCell id="opA1TEvDP1Y44mFqO1OU-101" value="" style="endArrow=none;html=1;rounded=0;fontSize=7;dashed=1;strokeColor=#454545;opacity=40;" parent="opA1TEvDP1Y44mFqO1OU-110" edge="1">
          <mxGeometry relative="1" as="geometry">
            <mxPoint x="120.85316879699201" y="20" as="sourcePoint" />
            <mxPoint x="120.65204298298426" as="targetPoint" />
          </mxGeometry>
        </mxCell>
        <mxCell id="opA1TEvDP1Y44mFqO1OU-105" value="" style="endArrow=none;html=1;rounded=0;fontSize=7;dashed=1;strokeColor=#454545;opacity=40;" parent="opA1TEvDP1Y44mFqO1OU-110" edge="1">
          <mxGeometry relative="1" as="geometry">
            <mxPoint x="200.81294363419056" y="20" as="sourcePoint" />
            <mxPoint x="200.61181782018264" as="targetPoint" />
          </mxGeometry>
        </mxCell>
        <mxCell id="opA1TEvDP1Y44mFqO1OU-106" value="" style="endArrow=none;html=1;rounded=0;fontSize=7;dashed=1;strokeColor=#454545;opacity=40;" parent="opA1TEvDP1Y44mFqO1OU-110" edge="1">
          <mxGeometry relative="1" as="geometry">
            <mxPoint x="40.00059156590578" as="sourcePoint" />
            <mxPoint x="200.00059156590578" as="targetPoint" />
          </mxGeometry>
        </mxCell>
        <mxCell id="opA1TEvDP1Y44mFqO1OU-59" value="AssetListForm" style="rounded=0;whiteSpace=wrap;html=1;strokeWidth=2;strokeColor=#8F8F8F;" parent="1" vertex="1">
          <mxGeometry x="320.00000000000006" y="670" width="81.87" height="50" as="geometry" />
        </mxCell>
        <mxCell id="opA1TEvDP1Y44mFqO1OU-69" value="" style="group" parent="1" vertex="1" connectable="0">
          <mxGeometry x="986.6494084340942" y="740" width="158.2205915659057" height="50" as="geometry" />
        </mxCell>
        <mxCell id="opA1TEvDP1Y44mFqO1OU-67" value="SetCategory" style="rounded=0;whiteSpace=wrap;html=1;strokeWidth=2;strokeColor=#8F8F8F;gradientColor=none;" parent="opA1TEvDP1Y44mFqO1OU-69" vertex="1">
          <mxGeometry width="74.87059156590577" height="50" as="geometry" />
        </mxCell>
        <mxCell id="opA1TEvDP1Y44mFqO1OU-68" value="SetAsset" style="rounded=0;whiteSpace=wrap;html=1;strokeWidth=2;strokeColor=#8F8F8F;gradientColor=none;" parent="opA1TEvDP1Y44mFqO1OU-69" vertex="1">
          <mxGeometry x="83.35000000000002" width="74.87059156590577" height="50" as="geometry" />
        </mxCell>
        <mxCell id="opA1TEvDP1Y44mFqO1OU-86" style="edgeStyle=none;orthogonalLoop=1;jettySize=auto;html=1;entryX=0.5;entryY=1;entryDx=0;entryDy=0;strokeColor=#616161;fontSize=5;fontColor=#000099;verticalAlign=middle;horizontal=0;rounded=0;startArrow=none;startFill=0;dashed=1;endArrow=none;endFill=0;opacity=60;" parent="1" target="opA1TEvDP1Y44mFqO1OU-20" edge="1">
          <mxGeometry relative="1" as="geometry">
            <mxPoint x="533" y="730" as="sourcePoint" />
            <mxPoint x="215.91304347826076" y="460" as="targetPoint" />
          </mxGeometry>
        </mxCell>
        <mxCell id="opA1TEvDP1Y44mFqO1OU-87" style="edgeStyle=none;orthogonalLoop=1;jettySize=auto;html=1;entryX=0.5;entryY=1;entryDx=0;entryDy=0;strokeColor=#616161;fontSize=5;fontColor=#000099;verticalAlign=middle;horizontal=0;rounded=0;startArrow=none;startFill=0;dashed=1;endArrow=none;endFill=0;opacity=60;" parent="1" target="opA1TEvDP1Y44mFqO1OU-19" edge="1">
          <mxGeometry relative="1" as="geometry">
            <mxPoint x="697" y="650" as="sourcePoint" />
            <mxPoint x="692.1530434782608" y="440" as="targetPoint" />
          </mxGeometry>
        </mxCell>
        <mxCell id="opA1TEvDP1Y44mFqO1OU-46" value="&lt;font style=&quot;font-size: 30px&quot;&gt;store&lt;/font&gt;" style="strokeWidth=1;html=1;shape=mxgraph.flowchart.start_2;whiteSpace=wrap;fontSize=7;fillColor=#fff2cc;strokeColor=#d6b656;fontColor=#999900;opacity=70;" parent="1" vertex="1">
          <mxGeometry x="429.25" y="440" width="130" height="130" as="geometry" />
        </mxCell>
        <mxCell id="opA1TEvDP1Y44mFqO1OU-48" style="edgeStyle=none;rounded=0;orthogonalLoop=1;jettySize=auto;html=1;exitX=0;exitY=0.5;exitDx=0;exitDy=0;exitPerimeter=0;strokeColor=#616161;fontSize=7;fontColor=#000099;" parent="1" source="opA1TEvDP1Y44mFqO1OU-47" target="opA1TEvDP1Y44mFqO1OU-46" edge="1">
          <mxGeometry relative="1" as="geometry" />
        </mxCell>
        <mxCell id="opA1TEvDP1Y44mFqO1OU-88" style="edgeStyle=none;orthogonalLoop=1;jettySize=auto;html=1;entryX=0.5;entryY=1;entryDx=0;entryDy=0;strokeColor=#616161;fontSize=5;fontColor=#000099;verticalAlign=middle;horizontal=0;rounded=0;startArrow=none;startFill=0;dashed=1;endArrow=none;endFill=0;opacity=60;exitX=0.5;exitY=0;exitDx=0;exitDy=0;" parent="1" source="opA1TEvDP1Y44mFqO1OU-118" target="opA1TEvDP1Y44mFqO1OU-18" edge="1">
          <mxGeometry relative="1" as="geometry">
            <mxPoint x="880" y="710" as="sourcePoint" />
            <mxPoint x="379.91304347826076" y="460" as="targetPoint" />
          </mxGeometry>
        </mxCell>
        <mxCell id="opA1TEvDP1Y44mFqO1OU-89" style="edgeStyle=none;orthogonalLoop=1;jettySize=auto;html=1;entryX=0.5;entryY=1;entryDx=0;entryDy=0;strokeColor=#616161;fontSize=5;fontColor=#000099;verticalAlign=middle;horizontal=0;rounded=0;startArrow=none;startFill=0;dashed=1;endArrow=none;endFill=0;opacity=60;exitX=0.5;exitY=0;exitDx=0;exitDy=0;" parent="1" source="opA1TEvDP1Y44mFqO1OU-67" target="opA1TEvDP1Y44mFqO1OU-16" edge="1">
          <mxGeometry relative="1" as="geometry">
            <mxPoint x="1060" y="720" as="sourcePoint" />
            <mxPoint x="870.913043478261" y="460" as="targetPoint" />
          </mxGeometry>
        </mxCell>
        <mxCell id="opA1TEvDP1Y44mFqO1OU-47" value="&lt;font style=&quot;font-size: 30px&quot;&gt;cookies&lt;/font&gt;" style="strokeWidth=1;html=1;shape=mxgraph.flowchart.start_2;whiteSpace=wrap;fontSize=7;fillColor=#dae8fc;strokeColor=#6c8ebf;opacity=70;" parent="1" vertex="1">
          <mxGeometry x="666.16" y="440" width="130" height="130" as="geometry" />
        </mxCell>
        <mxCell id="opA1TEvDP1Y44mFqO1OU-118" value="MyInfoForm" style="rounded=0;whiteSpace=wrap;html=1;strokeWidth=2;strokeColor=#8F8F8F;" parent="1" vertex="1">
          <mxGeometry x="819.98" y="750" width="81.87" height="50" as="geometry" />
        </mxCell>
        <mxCell id="opA1TEvDP1Y44mFqO1OU-133" value="" style="group" parent="1" vertex="1" connectable="0">
          <mxGeometry x="80" y="540" width="160" height="20" as="geometry" />
        </mxCell>
        <mxCell id="opA1TEvDP1Y44mFqO1OU-134" value="" style="group" parent="opA1TEvDP1Y44mFqO1OU-133" vertex="1" connectable="0">
          <mxGeometry width="160" height="20" as="geometry" />
        </mxCell>
        <mxCell id="opA1TEvDP1Y44mFqO1OU-135" value="" style="endArrow=none;html=1;rounded=0;fontSize=7;dashed=1;strokeColor=#454545;opacity=40;gradientColor=none;" parent="opA1TEvDP1Y44mFqO1OU-134" edge="1">
          <mxGeometry relative="1" as="geometry">
            <mxPoint x="0.20112581400780982" y="20" as="sourcePoint" />
            <mxPoint as="targetPoint" />
          </mxGeometry>
        </mxCell>
        <mxCell id="opA1TEvDP1Y44mFqO1OU-136" value="" style="endArrow=none;html=1;rounded=0;fontSize=7;dashed=1;strokeColor=#454545;opacity=40;gradientColor=none;" parent="opA1TEvDP1Y44mFqO1OU-134" edge="1">
          <mxGeometry relative="1" as="geometry">
            <mxPoint x="80.85257723108634" y="20" as="sourcePoint" />
            <mxPoint x="80.65145141707853" as="targetPoint" />
          </mxGeometry>
        </mxCell>
        <mxCell id="opA1TEvDP1Y44mFqO1OU-137" value="" style="endArrow=none;html=1;rounded=0;fontSize=7;dashed=1;strokeColor=#454545;opacity=40;" parent="opA1TEvDP1Y44mFqO1OU-134" edge="1">
          <mxGeometry relative="1" as="geometry">
            <mxPoint as="sourcePoint" />
            <mxPoint x="160" as="targetPoint" />
          </mxGeometry>
        </mxCell>
        <mxCell id="opA1TEvDP1Y44mFqO1OU-138" value="" style="endArrow=none;html=1;rounded=0;fontSize=7;dashed=1;strokeColor=#454545;opacity=40;gradientColor=none;" parent="opA1TEvDP1Y44mFqO1OU-134" edge="1">
          <mxGeometry relative="1" as="geometry">
            <mxPoint x="158.20257723108637" y="20" as="sourcePoint" />
            <mxPoint x="158.00145141707856" as="targetPoint" />
          </mxGeometry>
        </mxCell>
        <mxCell id="opA1TEvDP1Y44mFqO1OU-140" value="" style="group" parent="1" vertex="1" connectable="0">
          <mxGeometry x="569.9994084340942" y="650" width="241.39059156590565" height="70" as="geometry" />
        </mxCell>
        <mxCell id="opA1TEvDP1Y44mFqO1OU-79" value="" style="group" parent="opA1TEvDP1Y44mFqO1OU-140" vertex="1" connectable="0">
          <mxGeometry y="20" width="241.39059156590565" height="50" as="geometry" />
        </mxCell>
        <mxCell id="opA1TEvDP1Y44mFqO1OU-64" value="StatisticList" style="rounded=0;whiteSpace=wrap;html=1;strokeWidth=2;strokeColor=#8F8F8F;gradientColor=none;" parent="opA1TEvDP1Y44mFqO1OU-79" vertex="1">
          <mxGeometry width="74.87059156590577" height="50" as="geometry" />
        </mxCell>
        <mxCell id="opA1TEvDP1Y44mFqO1OU-65" value="RoundGraph" style="rounded=0;whiteSpace=wrap;html=1;strokeWidth=2;strokeColor=#8F8F8F;gradientColor=none;" parent="opA1TEvDP1Y44mFqO1OU-79" vertex="1">
          <mxGeometry x="83.52059156590576" width="74.87059156590577" height="50" as="geometry" />
        </mxCell>
        <mxCell id="opA1TEvDP1Y44mFqO1OU-66" value="BarGraph" style="rounded=0;whiteSpace=wrap;html=1;strokeWidth=2;strokeColor=#8F8F8F;gradientColor=none;" parent="opA1TEvDP1Y44mFqO1OU-79" vertex="1">
          <mxGeometry x="166.51999999999998" width="74.87059156590577" height="50" as="geometry" />
        </mxCell>
        <mxCell id="opA1TEvDP1Y44mFqO1OU-117" style="edgeStyle=none;rounded=0;orthogonalLoop=1;jettySize=auto;html=1;exitX=0.5;exitY=1;exitDx=0;exitDy=0;dashed=1;startArrow=none;startFill=0;endArrow=none;endFill=0;strokeColor=#454545;fontSize=5;fontColor=#000099;opacity=40;gradientColor=none;" parent="opA1TEvDP1Y44mFqO1OU-79" source="opA1TEvDP1Y44mFqO1OU-66" target="opA1TEvDP1Y44mFqO1OU-66" edge="1">
          <mxGeometry relative="1" as="geometry" />
        </mxCell>
        <mxCell id="opA1TEvDP1Y44mFqO1OU-139" style="edgeStyle=none;rounded=0;orthogonalLoop=1;jettySize=auto;html=1;exitX=1;exitY=0.25;exitDx=0;exitDy=0;dashed=1;startArrow=none;startFill=0;endArrow=none;endFill=0;strokeColor=#454545;fontSize=5;fontColor=#000099;opacity=40;gradientColor=none;" parent="opA1TEvDP1Y44mFqO1OU-79" source="opA1TEvDP1Y44mFqO1OU-65" target="opA1TEvDP1Y44mFqO1OU-65" edge="1">
          <mxGeometry relative="1" as="geometry" />
        </mxCell>
        <mxCell id="opA1TEvDP1Y44mFqO1OU-132" value="" style="group" parent="opA1TEvDP1Y44mFqO1OU-140" vertex="1" connectable="0">
          <mxGeometry x="40.00059156590578" width="160" height="20" as="geometry" />
        </mxCell>
        <mxCell id="opA1TEvDP1Y44mFqO1OU-130" value="" style="group" parent="opA1TEvDP1Y44mFqO1OU-132" vertex="1" connectable="0">
          <mxGeometry width="160" height="20" as="geometry" />
        </mxCell>
        <mxCell id="opA1TEvDP1Y44mFqO1OU-122" value="" style="endArrow=none;html=1;rounded=0;fontSize=7;dashed=1;strokeColor=#454545;opacity=40;gradientColor=none;" parent="opA1TEvDP1Y44mFqO1OU-130" edge="1">
          <mxGeometry relative="1" as="geometry">
            <mxPoint x="0.20112581400780982" y="20" as="sourcePoint" />
            <mxPoint as="targetPoint" />
          </mxGeometry>
        </mxCell>
        <mxCell id="opA1TEvDP1Y44mFqO1OU-123" value="" style="endArrow=none;html=1;rounded=0;fontSize=7;dashed=1;strokeColor=#454545;opacity=40;gradientColor=none;" parent="opA1TEvDP1Y44mFqO1OU-130" edge="1">
          <mxGeometry relative="1" as="geometry">
            <mxPoint x="80.85257723108634" y="20" as="sourcePoint" />
            <mxPoint x="80.65145141707853" as="targetPoint" />
          </mxGeometry>
        </mxCell>
        <mxCell id="opA1TEvDP1Y44mFqO1OU-124" value="" style="endArrow=none;html=1;rounded=0;fontSize=7;dashed=1;strokeColor=#454545;opacity=40;" parent="opA1TEvDP1Y44mFqO1OU-130" edge="1">
          <mxGeometry relative="1" as="geometry">
            <mxPoint as="sourcePoint" />
            <mxPoint x="160" as="targetPoint" />
          </mxGeometry>
        </mxCell>
        <mxCell id="opA1TEvDP1Y44mFqO1OU-125" value="" style="endArrow=none;html=1;rounded=0;fontSize=7;dashed=1;strokeColor=#454545;opacity=40;gradientColor=none;" parent="opA1TEvDP1Y44mFqO1OU-130" edge="1">
          <mxGeometry relative="1" as="geometry">
            <mxPoint x="158.20257723108637" y="20" as="sourcePoint" />
            <mxPoint x="158.00145141707856" as="targetPoint" />
          </mxGeometry>
        </mxCell>
      </root>
    </mxGraphModel>
  </diagram>
</mxfile>
